<svg version="1.1" viewBox="350.0178 175.4967 254.2901 189.0079" fill="none" stroke="none" stroke-linecap="square" stroke-miterlimit="10" xmlns:xlink="http://www.w3.org/1999/xlink" xmlns="http://www.w3.org/2000/svg">
  <defs>
    <mask id="logoMask" maskUnits="userSpaceOnUse" x="350" y="175" width="255" height="190">
      <!-- DARK logo shapes -> white = visible -->
      <path fill="#ffffff" d="m464.49026 181.49672l68.53543 108.47243l-108.47244 68.53546l-68.53543 -108.47246z"/>
      <path fill="none" stroke="#ffffff" stroke-width="12.0" stroke-linejoin="round" stroke-linecap="butt" d="m464.49026 181.49672l68.53543 108.47243l-108.47244 68.53546l-68.53543 -108.47246z"/>
      <path fill="none" stroke="#ffffff" stroke-width="12.0" stroke-linejoin="round" stroke-linecap="butt" d="m456.9344 270.00043c0 -39.03923 31.647552 -70.68678 70.68677 -70.68678c18.747314 0 36.726807 7.4473267 49.983093 20.703674c13.256348 13.256348 20.703735 31.23581 20.703735 49.98311c0 39.039246 -31.647583 70.6868 -70.68683 70.6868c-39.039215 0 -70.68677 -31.647552 -70.68677 -70.6868z"/>
      <path fill="none" stroke="#ffffff" stroke-width="12.0" stroke-linejoin="round" stroke-linecap="butt" d="m479.29922 270.00684c0 -26.69101 21.63733 -48.328354 48.32834 -48.328354c12.817444 0 25.109985 5.0917206 34.17328 14.155045c9.0633545 9.063324 14.15509 21.355835 14.15509 34.17331c0 26.69101 -21.63739 48.32834 -48.32837 48.32834c-26.69101 0 -48.32834 -21.63733 -48.32834 -48.32834z"/>
      <path fill="none" stroke="#ffffff" stroke-width="12.0" stroke-linejoin="round" stroke-linecap="butt" d="m501.13385 269.99698c0 -14.626633 11.857239 -26.483871 26.483887 -26.483871c7.023926 0 13.760254 2.790268 18.726929 7.756958c4.966675 4.96669 7.756958 11.702957 7.756958 18.726913c0 14.626648 -11.857239 26.483887 -26.483887 26.483887c-14.626648 0 -26.483887 -11.857239 -26.483887 -26.483887z"/>
      <path fill="#ffffff" d="m517.706 269.99982c0 -5.475647 4.438904 -9.914551 9.914551 -9.914551c2.6295166 0 5.151306 1.0445862 7.010681 2.9039001c1.859314 1.8593445 2.9038696 4.3811646 2.9038696 7.0106506c0 5.475647 -4.438904 9.914551 -9.914551 9.914551c-5.475647 0 -9.914551 -4.438904 -9.914551 -9.914551z"/>
      <path fill="none" stroke="#ffffff" stroke-width="1.0" stroke-linejoin="round" stroke-linecap="butt" d="m517.706 269.99982c0 -5.475647 4.438904 -9.914551 9.914551 -9.914551c2.6295166 0 5.151306 1.0445862 7.010681 2.9039001c1.859314 1.8593445 2.9038696 4.3811646 2.9038696 7.0106506c0 5.475647 -4.438904 9.914551 -9.914551 9.914551c-5.475647 0 -9.914551 -4.438904 -9.914551 -9.914551z"/>
      <!-- WHITE knockout shapes -> black = transparent holes -->
      <path fill="#000000" d="m480.20496 330.40002c-19.716461 -15.346619 -30.694336 -39.327637 -29.412567 -64.25119c1.2817688 -24.923553 14.662079 -47.65648 35.849243 -60.907272l25.341034 40.368973c-8.030823 4.992035 -13.104614 13.57312 -13.589539 22.983337c-0.48492432 9.410217 3.6801758 18.462769 11.155731 24.246094z"/>
      <path fill="#000000" d="m458.62073 265.33453l42.236237 -26.771637l32.503937 51.212585l-42.236237 26.771667z"/>
      <path fill="#000000" stroke="#000000" stroke-width="12.0" stroke-linejoin="round" stroke-linecap="butt" d="m458.62073 265.33453l42.236237 -26.771637l32.503937 51.212585l-42.236237 26.771667z"/>
      <path fill="#000000" d="m474.40863 321.23315l50.015747 -31.716522l5.826782 9.196838l-50.015747 31.716553z"/>
    </mask>
  </defs>
  <rect x="350.0178" y="175.4967" width="254.2901" height="189.0079" fill="currentColor" mask="url(#logoMask)"/>
</svg>
